<?xml version="1.0" standalone="no"?>
<!DOCTYPE svg PUBLIC "-//W3C//DTD SVG 20010904//EN"
 "http://www.w3.org/TR/2001/REC-SVG-20010904/DTD/svg10.dtd">
<svg version="1.0" xmlns="http://www.w3.org/2000/svg"
 width="500.000000pt" height="150.000000pt" viewBox="0 0 500.000000 150.000000"
 preserveAspectRatio="xMidYMid meet">

<g transform="translate(0.000000,150.000000) scale(0.100000,-0.100000)"
fill="#000000" stroke="none">
<path d="M1142 1402 c-2 -14 -92 -107 -103 -107 -11 0 -120 -89 -140 -113
l-19 -25 0 27 c0 14 -2 26 -4 26 -2 0 -23 -11 -47 -24 -24 -14 -87 -41 -139
-62 -148 -58 -200 -99 -241 -189 -10 -22 -19 -32 -19 -22 0 10 7 31 15 47 9
17 12 30 7 30 -14 0 -69 -63 -90 -102 -10 -21 -21 -35 -24 -32 -10 9 -46 -90
-62 -168 -18 -88 -20 -155 -6 -192 8 -21 6 -25 -13 -28 -21 -4 -21 -5 5 -18
18 -8 28 -21 28 -36 0 -39 -38 -147 -69 -197 -29 -44 -30 -56 -5 -39 17 11 92
172 103 222 41 182 157 399 286 535 l57 60 -50 -60 c-68 -83 -123 -166 -177
-267 -41 -77 -100 -226 -93 -233 7 -6 88 -16 88 -11 0 4 -12 11 -27 18 l-28
11 25 7 c94 27 181 116 318 325 152 232 154 236 188 271 25 27 28 34 15 39
-11 5 4 13 41 25 83 26 113 52 153 134 29 58 36 81 32 117 -2 24 -4 38 -5 31z"/>
<path d="M1370 982 c0 -4 9 -13 20 -20 18 -11 20 -23 20 -152 0 -129 -2 -141
-20 -152 -34 -21 -23 -28 45 -28 63 0 85 12 45 25 -17 5 -20 15 -20 71 0 57 2
64 19 64 21 0 51 -36 96 -112 26 -46 29 -48 71 -48 49 0 57 11 20 28 -13 6
-44 41 -68 79 l-44 68 31 15 c64 32 70 115 12 151 -26 15 -51 19 -129 19 -54
0 -98 -3 -98 -8z m169 -23 c85 -30 46 -139 -49 -139 l-30 0 0 68 c0 38 3 72 7
75 9 10 36 8 72 -4z"/>
<path d="M1760 982 c0 -4 9 -13 20 -20 18 -11 20 -23 20 -152 0 -129 -2 -141
-20 -152 -11 -7 -20 -16 -20 -20 0 -5 56 -8 124 -8 l124 0 10 40 c6 26 6 42 0
46 -5 3 -10 4 -12 3 -1 -2 -10 -16 -19 -31 -19 -31 -83 -46 -116 -28 -18 9
-21 20 -21 76 l0 65 38 -3 c27 -2 40 -9 47 -25 19 -44 35 -27 35 37 0 47 -3
60 -15 60 -8 0 -15 -7 -15 -15 0 -18 -31 -35 -64 -35 -26 0 -26 1 -26 75 l0
75 33 0 c53 0 77 -11 93 -42 20 -38 33 -25 27 25 l-5 37 -119 0 c-65 0 -119
-3 -119 -8z"/>
<path d="M2189 848 c-30 -78 -64 -157 -76 -176 -13 -18 -23 -35 -23 -37 0 -3
20 -5 45 -5 48 0 55 6 28 25 -15 11 -15 16 -2 51 l15 39 67 3 68 3 19 -43 c17
-37 18 -44 5 -54 -26 -19 -17 -24 47 -24 l61 0 -20 23 c-11 12 -51 93 -89 180
-37 86 -73 157 -79 157 -6 0 -36 -64 -66 -142z m84 -3 c15 -36 27 -68 27 -70
0 -3 -25 -5 -55 -5 -30 0 -55 3 -55 8 0 14 45 132 51 132 3 0 17 -29 32 -65z"/>
<path d="M2510 985 c0 -3 9 -14 20 -25 18 -18 20 -33 20 -150 0 -117 -2 -132
-20 -150 -11 -11 -20 -22 -20 -25 0 -3 38 -5 83 -5 99 0 169 19 208 56 57 54
60 194 6 252 -30 33 -108 52 -209 52 -48 0 -88 -2 -88 -5z m200 -33 c73 -36
103 -139 66 -227 -21 -50 -113 -88 -157 -65 -17 10 -19 23 -19 160 l0 150 38
0 c20 0 53 -8 72 -18z"/>
<path d="M2900 985 c0 -3 8 -13 18 -23 16 -16 84 -210 108 -305 13 -56 36 -26
80 107 24 71 45 131 47 133 3 2 26 -57 53 -132 27 -74 54 -135 61 -135 6 0 34
71 62 159 28 87 58 164 66 171 26 22 17 30 -35 30 -48 0 -67 -14 -35 -26 8 -4
15 -18 15 -33 0 -30 -50 -201 -59 -201 -3 0 -27 57 -52 128 -26 72 -52 128
-60 130 -10 2 -28 -38 -60 -135 l-46 -138 -37 118 c-37 116 -38 137 -10 137 8
0 14 5 14 10 0 6 -28 10 -65 10 -36 0 -65 -2 -65 -5z"/>
<path d="M3480 982 c0 -4 9 -13 20 -20 18 -11 20 -23 20 -152 0 -129 -2 -141
-20 -152 -34 -21 -23 -28 45 -28 63 0 85 12 45 25 -17 5 -20 15 -20 71 0 57 2
64 19 64 21 0 51 -36 96 -112 26 -46 29 -48 71 -48 49 0 57 11 20 28 -13 6
-44 41 -68 79 l-44 68 31 15 c64 32 70 115 12 151 -26 15 -51 19 -129 19 -54
0 -98 -3 -98 -8z m169 -23 c85 -30 46 -139 -49 -139 l-30 0 0 68 c0 38 3 72 7
75 9 10 36 8 72 -4z"/>
<path d="M3870 982 c0 -4 9 -13 20 -20 18 -11 20 -23 20 -152 0 -129 -2 -141
-20 -152 -34 -21 -23 -28 45 -28 63 0 85 12 45 25 -19 6 -20 15 -20 151 0 133
2 145 20 156 34 21 23 28 -45 28 -36 0 -65 -3 -65 -8z"/>
<path d="M4070 945 c0 -25 5 -45 10 -45 6 0 10 5 10 10 0 19 48 60 70 60 19 0
20 -6 20 -154 0 -146 -1 -155 -20 -161 -41 -13 -18 -25 50 -25 40 0 70 4 70
10 0 6 -7 10 -15 10 -26 0 -35 46 -35 181 0 104 3 131 14 135 24 9 71 -19 74
-44 2 -12 10 -22 18 -22 10 0 14 13 14 45 l0 45 -140 0 -140 0 0 -45z"/>
<path d="M4420 982 c0 -4 9 -13 20 -20 18 -11 20 -23 20 -152 0 -129 -2 -141
-20 -152 -11 -7 -20 -16 -20 -20 0 -5 56 -8 124 -8 l124 0 10 40 c6 26 6 42 0
46 -5 3 -10 4 -12 3 -1 -2 -10 -16 -19 -31 -19 -31 -83 -46 -116 -28 -18 9
-21 20 -21 76 l0 65 38 -3 c27 -2 40 -9 47 -25 19 -44 35 -27 35 37 0 47 -3
60 -15 60 -8 0 -15 -7 -15 -15 0 -18 -31 -35 -64 -35 -26 0 -26 1 -26 75 l0
75 33 0 c53 0 77 -11 93 -42 20 -38 33 -25 27 25 l-5 37 -119 0 c-65 0 -119
-3 -119 -8z"/>
<path d="M605 320 c-102 -23 -371 -117 -362 -126 2 -2 30 5 63 17 130 45 308
81 422 87 69 3 117 1 123 -5 7 -7 -8 -26 -45 -58 -170 -144 -102 -221 128
-145 88 30 381 169 372 177 -2 2 -62 -20 -133 -50 -191 -82 -249 -100 -327
-101 -46 -1 -70 3 -73 11 -3 7 30 46 72 87 43 41 75 80 73 88 -9 26 -53 38
-143 37 -49 0 -126 -9 -170 -19z"/>
</g>
</svg>
